<svg viewBox="0 0 190 119" xmlns="http://www.w3.org/2000/svg">
<path stroke="#000000" stroke-width="2" d="M1 113L1 0M5 113L5 0M19 113L19 0M33 103L33 0M41 103L41 0M55 103L55 0M93 113L93 0M97 113L97 0M111 103L111 0M125 103L125 0M143 103L143 0M157 103L157 0M185 113L185 0M189 113L189 0" />
<path stroke="#000000" stroke-width="4" d="M14 113L14 0M46 103L46 0M60 103L60 0M74 103L74 0M80 103L80 0M130 103L130 0M138 103L138 0M172 113L172 0M178 113L178 0" />
<path stroke="#000000" stroke-width="8" d="M26 103L26 0" />
<path stroke="#000000" stroke-width="6" d="M67 103L67 0M87 103L87 0M103 103L103 0M117 103L117 0M151 103L151 0M163 103L163 0" />
<path d="M29.55 118.14L29.48 118.14Q28.41 118.12 27.62 117.79Q26.82 117.48 26.35 116.98Q25.88 116.45 25.61 115.64Q25.32 114.82 25.23 113.99Q25.14 113.17 25.14 112.06Q25.14 111.07 25.16 110.38Q25.19 109.67 25.30 108.85Q25.41 108.02 25.59 107.46Q25.79 106.89 26.12 106.32Q26.44 105.76 26.89 105.43Q27.35 105.10 28.00 104.89Q28.65 104.68 29.48 104.68Q30.29 104.68 30.94 104.89Q31.59 105.10 32.05 105.43Q32.50 105.76 32.84 106.32Q33.17 106.89 33.35 107.46Q33.55 108.04 33.66 108.85Q33.76 109.67 33.78 110.38Q33.82 111.09 33.82 112.06Q33.82 112.76 33.78 113.33Q33.75 113.89 33.62 114.55Q33.51 115.21 33.33 115.71Q33.15 116.19 32.81 116.66Q32.46 117.13 32.03 117.44Q31.59 117.76 30.96 117.95Q30.33 118.14 29.55 118.14M26.77 110.64L26.77 112.06Q26.77 112.84 26.80 113.40Q26.86 113.96 27.02 114.60Q27.16 115.24 27.45 115.64Q27.74 116.06 28.25 116.33Q28.76 116.59 29.48 116.59L29.86 116.59Q30.37 116.59 30.76 116.40Q31.16 116.19 31.40 115.81Q31.65 115.45 31.81 115.03Q31.97 114.60 32.05 114.06Q32.14 113.50 32.16 113.05Q32.19 112.60 32.19 112.06L32.19 111.26Q32.19 110.73 32.17 110.41Q32.17 110.08 32.16 109.60Q32.14 109.09 32.08 108.82Q32.03 108.52 31.94 108.12Q31.85 107.72 31.70 107.48Q31.56 107.24 31.36 106.98Q31.14 106.72 30.89 106.58Q30.62 106.42 30.26 106.33Q29.91 106.25 29.48 106.25Q29.03 106.25 28.67 106.35Q28.32 106.44 28.05 106.61Q27.78 106.79 27.56 107.05Q27.36 107.29 27.22 107.60Q27.07 107.90 26.98 108.26Q26.89 108.61 26.86 109.01Q26.82 109.39 26.78 109.81Q26.77 110.21 26.77 110.64ZM37.52 117.48Q37.14 117.20 37.14 116.78Q37.14 116.45 37.37 116.23Q37.63 115.99 37.95 115.99Q38.06 115.99 38.26 116.06Q39.42 116.56 40.68 116.56Q42.06 116.56 43.00 115.90Q43.96 115.22 44.03 113.94L44.03 113.76Q44.03 112.88 43.45 112.25Q42.91 111.65 42.11 111.39Q41.33 111.14 40.38 111.14Q40.07 111.14 39.83 110.92Q39.60 110.67 39.60 110.34Q39.60 110.03 39.76 109.86L43.09 106.32L38.01 106.32Q37.68 106.32 37.43 106.09Q37.19 105.85 37.19 105.52Q37.19 105.19 37.43 104.96Q37.66 104.74 38.01 104.74L44.39 104.74Q44.72 104.74 44.95 104.98Q45.20 105.21 45.20 105.52L45.20 106.14Q45.20 106.42 44.95 106.66L42.04 109.74L42.18 109.77Q43.72 110.15 44.70 111.18Q45.66 112.20 45.66 113.75L45.66 114.02Q45.57 115.92 44.12 117.03Q42.71 118.14 40.68 118.14Q40.18 118.14 39.67 118.09Q39.16 118.03 38.53 117.91Q37.90 117.77 37.52 117.48ZM51.56 107.08Q50.77 107.91 50.77 109.08Q50.77 110.21 51.53 110.92Q52.25 111.61 53.48 111.61Q55.63 111.61 56.01 110.34Q56.19 109.77 56.19 109.08Q56.19 107.78 55.43 107.01Q54.69 106.23 53.48 106.23Q52.34 106.23 51.56 107.08M50.37 111.99Q49.14 110.83 49.14 109.08Q49.14 107.27 50.44 105.97Q51.71 104.67 53.48 104.67Q55.31 104.67 56.55 105.88Q57.82 107.10 57.82 109.08Q57.82 110.31 57.44 111.30Q57.06 112.29 56.37 113.43Q54.87 115.95 52.70 117.88Q52.47 118.09 52.20 118.09Q51.89 118.09 51.65 117.86Q51.42 117.64 51.42 117.31Q51.42 116.98 51.67 116.73Q53.39 115.15 54.62 113.24L54.71 113.07L54.53 113.10Q54.06 113.17 53.48 113.17Q51.56 113.17 50.37 111.99ZM63.56 107.08Q62.77 107.91 62.77 109.08Q62.77 110.21 63.53 110.92Q64.25 111.61 65.48 111.61Q67.63 111.61 68.01 110.34Q68.19 109.77 68.19 109.08Q68.19 107.78 67.43 107.01Q66.69 106.23 65.48 106.23Q64.34 106.23 63.56 107.08M62.37 111.99Q61.14 110.83 61.14 109.08Q61.14 107.27 62.44 105.97Q63.71 104.67 65.48 104.67Q67.31 104.67 68.55 105.88Q69.82 107.10 69.82 109.08Q69.82 110.31 69.44 111.30Q69.06 112.29 68.37 113.43Q66.87 115.95 64.70 117.88Q64.47 118.09 64.20 118.09Q63.89 118.09 63.65 117.86Q63.42 117.64 63.42 117.31Q63.42 116.98 63.67 116.73Q65.39 115.15 66.62 113.24L66.71 113.07L66.53 113.10Q66.06 113.17 65.48 113.17Q63.56 113.17 62.37 111.99ZM73.37 106.09Q73.14 105.85 73.14 105.52Q73.14 105.19 73.37 104.96Q73.61 104.74 73.95 104.74L81.01 104.74Q81.35 104.74 81.58 104.98Q81.82 105.21 81.82 105.52Q81.82 106.84 80.75 108.38Q80.43 108.87 79.49 110.00Q78.55 111.14 78.15 111.85Q76.97 113.94 76.97 117.29Q76.97 117.62 76.74 117.86Q76.50 118.09 76.20 118.09Q75.89 118.09 75.65 117.86Q75.42 117.64 75.42 117.29Q75.42 113.50 76.79 111.06Q77.21 110.34 78.15 109.15Q79.11 107.93 79.41 107.48Q79.85 106.79 80.01 106.44L80.05 106.32L73.95 106.32Q73.63 106.32 73.37 106.09ZM88.07 106.58Q87.38 106.92 87.38 107.58Q87.38 108.02 87.54 108.35Q87.71 108.68 88.09 108.96Q88.45 109.22 88.68 109.35Q88.94 109.49 89.44 109.74L89.48 109.74L89.52 109.74Q90.02 109.51 90.27 109.37Q90.53 109.23 90.89 108.97Q91.25 108.70 91.41 108.37Q91.58 108.02 91.58 107.58Q91.58 106.92 90.89 106.58Q90.22 106.23 89.48 106.23Q88.74 106.23 88.07 106.58M89.48 111.52Q86.75 112.90 86.75 114.53Q86.75 115.50 87.56 116.04Q88.32 116.58 89.48 116.58L89.84 116.58Q90.80 116.58 91.49 115.97Q92.19 115.36 92.19 114.53Q92.19 112.88 89.55 111.52L89.52 111.49L89.48 111.52M86.39 117.13Q85.14 116.13 85.14 114.53Q85.14 112.43 87.71 110.73L87.82 110.66L87.71 110.59Q85.75 109.44 85.75 107.58Q85.75 106.32 86.91 105.50Q88.05 104.67 89.48 104.67Q90.89 104.67 92.05 105.50Q93.20 106.33 93.20 107.58Q93.20 108.61 92.70 109.32Q92.17 110.01 91.25 110.59L91.14 110.66L91.25 110.73Q93.82 112.43 93.82 114.53Q93.82 115.90 92.77 116.96Q91.72 118.02 90.24 118.14L89.48 118.14Q87.62 118.14 86.39 117.13ZM101.55 118.14L101.48 118.14Q100.41 118.12 99.62 117.79Q98.82 117.48 98.35 116.98Q97.88 116.45 97.61 115.64Q97.32 114.82 97.23 113.99Q97.14 113.17 97.14 112.06Q97.14 111.07 97.16 110.38Q97.19 109.67 97.30 108.85Q97.41 108.02 97.59 107.46Q97.79 106.89 98.12 106.32Q98.44 105.76 98.89 105.43Q99.35 105.10 100.00 104.89Q100.65 104.68 101.48 104.68Q102.29 104.68 102.94 104.89Q103.59 105.10 104.05 105.43Q104.50 105.76 104.84 106.32Q105.17 106.89 105.35 107.46Q105.55 108.04 105.66 108.85Q105.76 109.67 105.78 110.38Q105.82 111.09 105.82 112.06Q105.82 112.76 105.78 113.33Q105.75 113.89 105.62 114.55Q105.51 115.21 105.33 115.71Q105.15 116.19 104.81 116.66Q104.46 117.13 104.03 117.44Q103.59 117.76 102.96 117.95Q102.33 118.14 101.55 118.14M98.77 110.64L98.77 112.06Q98.77 112.84 98.80 113.40Q98.86 113.96 99.02 114.60Q99.16 115.24 99.45 115.64Q99.74 116.06 100.25 116.33Q100.76 116.59 101.48 116.59L101.86 116.59Q102.37 116.59 102.76 116.40Q103.16 116.19 103.40 115.81Q103.65 115.45 103.81 115.03Q103.97 114.60 104.05 114.06Q104.14 113.50 104.16 113.05Q104.19 112.60 104.19 112.06L104.19 111.26Q104.19 110.73 104.17 110.41Q104.17 110.08 104.16 109.60Q104.14 109.09 104.08 108.82Q104.03 108.52 103.94 108.12Q103.85 107.72 103.70 107.48Q103.56 107.24 103.36 106.98Q103.14 106.72 102.89 106.58Q102.62 106.42 102.26 106.33Q101.91 106.25 101.48 106.25Q101.03 106.25 100.67 106.35Q100.32 106.44 100.05 106.61Q99.78 106.79 99.56 107.05Q99.36 107.29 99.22 107.60Q99.07 107.90 98.98 108.26Q98.89 108.61 98.86 109.01Q98.82 109.39 98.78 109.81Q98.77 110.21 98.77 110.64ZM113.55 118.14L113.48 118.14Q112.41 118.12 111.62 117.79Q110.82 117.48 110.35 116.98Q109.88 116.45 109.61 115.64Q109.32 114.82 109.23 113.99Q109.14 113.17 109.14 112.06Q109.14 111.07 109.16 110.38Q109.19 109.67 109.30 108.85Q109.41 108.02 109.59 107.46Q109.79 106.89 110.12 106.32Q110.44 105.76 110.89 105.43Q111.35 105.10 112.00 104.89Q112.65 104.68 113.48 104.68Q114.29 104.68 114.94 104.89Q115.59 105.10 116.05 105.43Q116.50 105.76 116.84 106.32Q117.17 106.89 117.35 107.46Q117.55 108.04 117.66 108.85Q117.76 109.67 117.78 110.38Q117.82 111.09 117.82 112.06Q117.82 112.76 117.78 113.33Q117.75 113.89 117.62 114.55Q117.51 115.21 117.33 115.71Q117.15 116.19 116.81 116.66Q116.46 117.13 116.03 117.44Q115.59 117.76 114.96 117.95Q114.33 118.14 113.55 118.14M110.77 110.64L110.77 112.06Q110.77 112.84 110.80 113.40Q110.86 113.96 111.02 114.60Q111.16 115.24 111.45 115.64Q111.74 116.06 112.25 116.33Q112.76 116.59 113.48 116.59L113.86 116.59Q114.37 116.59 114.76 116.40Q115.16 116.19 115.40 115.81Q115.65 115.45 115.81 115.03Q115.97 114.60 116.05 114.06Q116.14 113.50 116.16 113.05Q116.19 112.60 116.19 112.06L116.19 111.26Q116.19 110.73 116.17 110.41Q116.17 110.08 116.16 109.60Q116.14 109.09 116.08 108.82Q116.03 108.52 115.94 108.12Q115.85 107.72 115.70 107.48Q115.56 107.24 115.36 106.98Q115.14 106.72 114.89 106.58Q114.62 106.42 114.26 106.33Q113.91 106.25 113.48 106.25Q113.03 106.25 112.67 106.35Q112.32 106.44 112.05 106.61Q111.78 106.79 111.56 107.05Q111.36 107.29 111.22 107.60Q111.07 107.90 110.98 108.26Q110.89 108.61 110.86 109.01Q110.82 109.39 110.78 109.81Q110.77 110.21 110.77 110.64ZM121.93 108.73Q121.70 108.49 121.70 108.17Q121.70 107.81 121.93 107.64L125.24 104.91Q125.48 104.72 125.77 104.72L126.35 104.72Q126.67 104.72 126.91 104.96Q127.16 105.19 127.16 105.50L127.16 117.31Q127.16 117.62 126.91 117.86Q126.67 118.09 126.35 118.09Q126.02 118.09 125.77 117.86Q125.53 117.64 125.53 117.31L125.53 106.73L123.06 108.76Q122.82 108.96 122.51 108.96Q122.17 108.96 121.93 108.73ZM133.84 117.91Q133.61 117.69 133.61 117.36Q133.61 117.01 133.84 116.78Q134.10 116.56 134.42 116.56Q138.08 116.56 139.14 114.60Q139.47 114.01 139.47 113.47Q139.47 112.20 138.85 111.56Q138.04 110.64 136.00 110.64Q135.44 110.64 134.86 110.69L134.78 110.69Q134.46 110.69 134.21 110.48Q133.97 110.26 133.97 109.95L133.97 109.89L134.22 105.47Q134.26 105.15 134.48 104.95Q134.71 104.74 135.04 104.74L140.17 104.74Q140.52 104.74 140.75 104.98Q140.99 105.21 140.99 105.52Q140.99 105.83 140.73 106.07Q140.50 106.32 140.17 106.32L135.80 106.32L135.65 109.04L136.00 109.04Q138.29 109.04 139.69 110.17Q141.10 111.28 141.10 113.47Q141.10 114.39 140.68 115.19Q140.25 116.00 139.59 116.58Q137.86 118.14 134.42 118.14Q134.10 118.14 133.84 117.91M134.84 110.69Q134.84 110.69 134.86 110.69Q134.86 110.69 134.84 110.69ZM145.37 114.84Q145.14 114.61 145.14 114.28L145.14 113.54Q145.14 113.40 145.23 113.21L149.08 105.17Q149.15 104.98 149.35 104.86Q149.55 104.72 149.77 104.72Q150.09 104.72 150.33 104.96Q150.56 105.19 150.56 105.50Q150.56 105.67 150.47 105.83L146.86 113.50L150.38 113.50L150.38 111.40Q150.38 111.09 150.62 110.87Q150.85 110.62 151.16 110.62Q151.47 110.62 151.70 110.87Q151.96 111.09 151.96 111.40L151.96 113.50L153.01 113.50Q153.35 113.50 153.58 113.75Q153.82 113.97 153.82 114.28Q153.82 114.60 153.57 114.84Q153.33 115.07 153.01 115.07L151.96 115.07L151.96 117.31Q151.96 117.62 151.70 117.84Q151.47 118.09 151.16 118.09Q150.85 118.09 150.62 117.86Q150.38 117.62 150.38 117.31L150.38 115.07L145.95 115.07Q145.63 115.07 145.37 114.84ZM157.68 106.91Q157.45 106.66 157.45 106.37Q157.45 105.93 157.79 105.71Q159.44 104.67 161.48 104.67Q163.12 104.67 164.23 105.67Q165.35 106.66 165.35 108.28Q165.35 108.92 165.11 109.51Q164.88 110.12 164.57 110.50Q164.28 110.88 163.70 111.35Q163.12 111.82 162.82 112.03Q162.53 112.24 161.90 112.64Q161.21 113.07 160.90 113.30Q160.59 113.52 160.16 113.97Q159.73 114.41 159.53 114.96Q159.33 115.50 159.29 116.25L159.29 116.33L164.64 116.33Q164.99 116.33 165.22 116.58Q165.46 116.80 165.46 117.11Q165.46 117.43 165.20 117.67Q164.97 117.90 164.64 117.90L158.46 117.90Q158.13 117.90 157.88 117.67Q157.65 117.43 157.65 117.11L157.65 116.75Q157.65 115.40 157.83 114.81Q158.13 113.76 158.98 112.95Q159.83 112.12 161.06 111.32Q162.76 110.22 163.22 109.60Q163.72 108.97 163.72 108.28Q163.72 107.36 163.05 106.79Q162.42 106.23 161.48 106.23Q159.85 106.23 158.73 106.99Q158.53 107.13 158.26 107.13Q157.93 107.13 157.68 106.91Z" fill="#000000" />
</svg>
